<svg width="354" height="171" viewBox="0 0 354 171" fill="none" xmlns="http://www.w3.org/2000/svg">
<path d="M191.594 24.7008C183.067 24.7008 179.24 26.4629 176.914 36.0562H176.672C174.346 26.4629 170.519 24.7008 161.992 24.7008H141.74C125.219 24.7008 122.602 17.9463 122.602 0.766479H122.845C124.589 9.62561 129.531 12.6113 137.767 12.6113H159.375C168.484 12.6113 174.201 14.1286 176.672 24.8477H176.914C179.385 14.1286 185.054 12.6113 194.211 12.6113H215.819C224.104 12.6113 229.046 9.62561 230.741 0.766479H230.984C230.984 17.9463 228.416 24.7008 211.846 24.7008H191.594Z" fill="#F1E9D7"/>
<path d="M137.816 46.2861C138.785 46.6287 139.269 47.3139 139.269 48.4397C139.269 49.908 138.203 50.6422 136.12 50.6422H129.434V42.2236H136.168C136.992 42.2236 137.67 42.4194 138.155 42.8599C138.639 43.3004 138.882 43.8388 138.882 44.524C138.882 45.3072 138.542 45.8945 137.816 46.2861ZM136.217 45.7477C136.604 45.7477 136.944 45.6498 137.186 45.405C137.428 45.1603 137.573 44.9156 137.573 44.573C137.573 44.2304 137.476 43.9367 137.234 43.7409C136.992 43.5451 136.701 43.4472 136.314 43.4472H130.79V45.6987H136.217V45.7477ZM136.071 49.3696C137.234 49.3696 137.816 48.9781 137.816 48.1949C137.816 47.3629 137.331 46.9713 136.314 46.9713H130.79V49.3696H136.071Z" fill="#F1E9D7"/>
<path d="M145.034 42.2236H143.629V50.6422H145.034V42.2236Z" fill="#F1E9D7"/>
<path d="M159.279 44.1324L158.019 44.5729C157.195 43.643 155.984 43.2025 154.482 43.2025C153.319 43.2025 152.399 43.4961 151.672 44.0835C150.945 44.6708 150.558 45.454 150.558 46.3839C150.558 47.3628 150.897 48.097 151.624 48.6844C152.35 49.2717 153.319 49.5654 154.531 49.5654C155.984 49.5654 157.147 49.1249 158.019 48.1949L159.182 48.8802C158.6 49.5654 157.922 50.1038 157.147 50.3975C156.372 50.6911 155.5 50.8869 154.434 50.8869C152.98 50.8869 151.72 50.4954 150.752 49.7612C149.637 48.9291 149.056 47.8034 149.056 46.3839C149.056 45.0135 149.637 43.9367 150.752 43.0556C151.72 42.3215 152.932 41.9299 154.385 41.9299C156.565 41.9299 158.164 42.6641 159.279 44.1324Z" fill="#F1E9D7"/>
<path d="M171.924 50.6422H163.203V42.2236H171.633V43.4472H164.608V45.6498H169.502V46.8734H164.608V49.3696H171.924V50.6422Z" fill="#F1E9D7"/>
<path d="M183.649 44.1811C182.389 43.5448 181.13 43.2022 179.87 43.2022C178.998 43.2022 178.368 43.3001 177.932 43.4959C177.496 43.6917 177.254 43.9853 177.254 44.328C177.254 44.7195 177.496 44.9643 177.98 45.16C178.32 45.3069 178.901 45.3558 179.676 45.4048C180.839 45.5027 181.614 45.5516 181.953 45.6005C183.019 45.7474 183.794 45.9921 184.279 46.3837C184.763 46.7752 185.006 47.3136 185.006 47.9989C185.006 48.8799 184.618 49.5651 183.843 50.0546C183.068 50.544 181.953 50.7888 180.451 50.7888C178.32 50.7888 176.672 50.2993 175.461 49.3694L176.236 48.3415C177.544 49.1246 178.949 49.5651 180.451 49.5651C181.42 49.5651 182.195 49.4183 182.728 49.1736C183.261 48.9288 183.504 48.5373 183.504 48.0968C183.504 47.5584 183.164 47.2157 182.486 47.02C182.147 46.9221 181.178 46.8242 179.628 46.7263C178.271 46.6284 177.302 46.4326 176.721 46.1879C176.091 45.8453 175.752 45.3069 175.752 44.5237C175.752 43.7406 176.139 43.1043 176.866 42.6638C177.593 42.2233 178.659 41.9786 179.967 41.9786C181.759 41.9786 183.261 42.4191 184.473 43.2022L183.649 44.1811Z" fill="#F1E9D7"/>
<path d="M197.214 43.4472H193.242V50.6422H191.885V43.4472H187.864V42.2236H197.214V43.4472Z" fill="#F1E9D7"/>
<path d="M209.908 50.6422H201.139V42.2236H209.569V43.4472H202.544V45.6498H207.437V46.8734H202.544V49.3696H209.908V50.6422Z" fill="#F1E9D7"/>
<path d="M223.765 50.6422H222.166L219.889 47.4118H215.674V50.6422H214.269V42.2236H220.858C221.73 42.2236 222.408 42.4683 222.941 42.9578C223.426 43.4472 223.668 44.0835 223.668 44.9156C223.668 45.6498 223.474 46.1882 223.038 46.6287C222.651 47.0202 222.166 47.265 221.488 47.4118L223.765 50.6422ZM220.664 46.1882C221.73 46.1882 222.263 45.7477 222.263 44.8666C222.263 43.9367 221.682 43.4472 220.519 43.4472H215.674V46.1392H220.664V46.1882Z" fill="#F1E9D7"/>
<path d="M137.525 57.0538V60.48H130.79V57.0538H129.434V65.5214H130.79V61.7526H137.525V65.5214H138.882V57.0538H137.525Z" fill="#F1E9D7"/>
<path d="M142.903 57.0538V65.5214H151.624V64.2488H144.259V61.7526H149.153V60.48H144.259V58.3264H151.333V57.0538H142.903Z" fill="#F1E9D7"/>
<path d="M164.851 65.5214H163.252L160.975 62.291H156.76V65.5214H155.355V57.0538H161.944C162.816 57.0538 163.494 57.2986 164.027 57.788C164.512 58.2775 164.754 58.9138 164.754 59.7458C164.754 60.48 164.56 61.0184 164.124 61.4589C163.736 61.8505 163.252 62.0952 162.574 62.2421L164.851 65.5214ZM161.75 61.0184C162.816 61.0184 163.349 60.5779 163.349 59.6969C163.349 58.7669 162.767 58.2775 161.605 58.2775H156.76V60.9695H161.75V61.0184Z" fill="#F1E9D7"/>
<path d="M171.052 57.0538H169.647V65.4725H171.052V57.0538Z" fill="#F1E9D7"/>
<path d="M174.298 57.0538V58.3264H178.27V65.5214H179.675V58.3264H183.648V57.0538H174.298Z" fill="#F1E9D7"/>
<path d="M189.559 57.0538L185.15 65.4725H186.652L187.621 63.5636H193.241L194.21 65.4725H195.712L191.304 57.0538H189.559ZM190.431 58.2775L192.563 62.34H188.3L190.431 58.2775Z" fill="#F1E9D7"/>
<path d="M210.005 61.1656C210.005 62.5361 209.521 63.6619 208.552 64.4939C207.583 65.326 206.274 65.7665 204.676 65.7665C203.222 65.7665 201.962 65.3749 200.993 64.6408C199.879 63.8087 199.298 62.6829 199.298 61.3125C199.298 59.942 199.879 58.8652 200.993 57.9842C201.962 57.201 203.222 56.8584 204.772 56.8584C206.614 56.8584 208.115 57.5437 209.278 58.9141L207.97 59.5504C207.098 58.6205 205.984 58.131 204.627 58.131C203.561 58.131 202.689 58.3757 201.962 58.9141C201.139 59.5504 200.703 60.3336 200.703 61.3125C200.703 62.2424 201.042 63.0256 201.769 63.6129C202.495 64.2003 203.416 64.4939 204.627 64.4939C206.468 64.4939 207.679 63.7597 208.212 62.2914H204.336V61.0188H209.957V61.1656H210.005Z" fill="#F1E9D7"/>
<path d="M215.14 57.0538V65.5214H223.861V64.2488H216.497V61.7526H221.39V60.48H216.497V58.3264H223.522V57.0538H215.14Z" fill="#F1E9D7"/>
<path d="M149.322 84.7665C150.229 84.7665 150.942 84.9831 151.462 85.4165C151.982 85.8498 152.242 86.4465 152.242 87.2065C152.242 87.9665 151.982 88.5631 151.462 88.9965C150.942 89.4298 150.229 89.6465 149.322 89.6465H147.592V91.7665H146.592V84.7665H149.322ZM149.292 88.7765C149.926 88.7765 150.409 88.6431 150.742 88.3765C151.076 88.1031 151.242 87.7131 151.242 87.2065C151.242 86.6998 151.076 86.3131 150.742 86.0465C150.409 85.7731 149.926 85.6365 149.292 85.6365H147.592V88.7765H149.292Z" fill="#F1E9D7"/>
<path d="M159.591 91.7665L158.081 89.6165C157.895 89.6298 157.748 89.6365 157.641 89.6365H155.911V91.7665H154.911V84.7665H157.641C158.548 84.7665 159.261 84.9831 159.781 85.4165C160.301 85.8498 160.561 86.4465 160.561 87.2065C160.561 87.7465 160.428 88.2065 160.161 88.5865C159.895 88.9665 159.515 89.2431 159.021 89.4165L160.681 91.7665H159.591ZM157.611 88.7865C158.245 88.7865 158.728 88.6498 159.061 88.3765C159.395 88.1031 159.561 87.7131 159.561 87.2065C159.561 86.6998 159.395 86.3131 159.061 86.0465C158.728 85.7731 158.245 85.6365 157.611 85.6365H155.911V88.7865H157.611Z" fill="#F1E9D7"/>
<path d="M168.457 90.8965V91.7665H163.377V84.7665H168.317V85.6365H164.377V87.7865H167.887V88.6365H164.377V90.8965H168.457Z" fill="#F1E9D7"/>
<path d="M173.316 91.8465C172.79 91.8465 172.28 91.7665 171.786 91.6065C171.3 91.4398 170.916 91.2265 170.636 90.9665L171.006 90.1865C171.273 90.4265 171.613 90.6231 172.026 90.7765C172.446 90.9231 172.876 90.9965 173.316 90.9965C173.896 90.9965 174.33 90.8998 174.616 90.7065C174.903 90.5065 175.046 90.2431 175.046 89.9165C175.046 89.6765 174.966 89.4831 174.806 89.3365C174.653 89.1831 174.46 89.0665 174.226 88.9865C174 88.9065 173.676 88.8165 173.256 88.7165C172.73 88.5898 172.303 88.4631 171.976 88.3365C171.656 88.2098 171.38 88.0165 171.146 87.7565C170.92 87.4898 170.806 87.1331 170.806 86.6865C170.806 86.3131 170.903 85.9765 171.096 85.6765C171.296 85.3765 171.596 85.1365 171.996 84.9565C172.396 84.7765 172.893 84.6865 173.486 84.6865C173.9 84.6865 174.306 84.7398 174.706 84.8465C175.106 84.9531 175.45 85.1065 175.736 85.3065L175.406 86.1065C175.113 85.9198 174.8 85.7798 174.466 85.6865C174.133 85.5865 173.806 85.5365 173.486 85.5365C172.92 85.5365 172.493 85.6398 172.206 85.8465C171.926 86.0531 171.786 86.3198 171.786 86.6465C171.786 86.8865 171.866 87.0831 172.026 87.2365C172.186 87.3831 172.383 87.4998 172.616 87.5865C172.856 87.6665 173.18 87.7531 173.586 87.8465C174.113 87.9731 174.536 88.0998 174.856 88.2265C175.176 88.3531 175.45 88.5465 175.676 88.8065C175.91 89.0665 176.026 89.4165 176.026 89.8565C176.026 90.2231 175.926 90.5598 175.726 90.8665C175.526 91.1665 175.223 91.4065 174.816 91.5865C174.41 91.7598 173.91 91.8465 173.316 91.8465Z" fill="#F1E9D7"/>
<path d="M183.767 90.8965V91.7665H178.687V84.7665H183.627V85.6365H179.687V87.7865H183.197V88.6365H179.687V90.8965H183.767Z" fill="#F1E9D7"/>
<path d="M192.606 84.7665V91.7665H191.786L187.586 86.5465V91.7665H186.586V84.7665H187.406L191.606 89.9865V84.7665H192.606Z" fill="#F1E9D7"/>
<path d="M197.292 85.6365H194.892V84.7665H200.682V85.6365H198.282V91.7665H197.292V85.6365Z" fill="#F1E9D7"/>
<path d="M204.923 91.8465C204.396 91.8465 203.886 91.7665 203.393 91.6065C202.906 91.4398 202.523 91.2265 202.243 90.9665L202.613 90.1865C202.879 90.4265 203.219 90.6231 203.633 90.7765C204.053 90.9231 204.483 90.9965 204.923 90.9965C205.503 90.9965 205.936 90.8998 206.223 90.7065C206.509 90.5065 206.653 90.2431 206.653 89.9165C206.653 89.6765 206.573 89.4831 206.413 89.3365C206.259 89.1831 206.066 89.0665 205.833 88.9865C205.606 88.9065 205.283 88.8165 204.863 88.7165C204.336 88.5898 203.909 88.4631 203.583 88.3365C203.263 88.2098 202.986 88.0165 202.753 87.7565C202.526 87.4898 202.413 87.1331 202.413 86.6865C202.413 86.3131 202.509 85.9765 202.703 85.6765C202.903 85.3765 203.203 85.1365 203.603 84.9565C204.003 84.7765 204.499 84.6865 205.093 84.6865C205.506 84.6865 205.913 84.7398 206.313 84.8465C206.713 84.9531 207.056 85.1065 207.343 85.3065L207.013 86.1065C206.719 85.9198 206.406 85.7798 206.073 85.6865C205.739 85.5865 205.413 85.5365 205.093 85.5365C204.526 85.5365 204.099 85.6398 203.813 85.8465C203.533 86.0531 203.393 86.3198 203.393 86.6465C203.393 86.8865 203.473 87.0831 203.633 87.2365C203.793 87.3831 203.989 87.4998 204.223 87.5865C204.463 87.6665 204.786 87.7531 205.193 87.8465C205.719 87.9731 206.143 88.0998 206.463 88.2265C206.783 88.3531 207.056 88.5465 207.283 88.8065C207.516 89.0665 207.633 89.4165 207.633 89.8565C207.633 90.2231 207.533 90.5598 207.333 90.8665C207.133 91.1665 206.829 91.4065 206.423 91.5865C206.016 91.7598 205.516 91.8465 204.923 91.8465Z" fill="#F1E9D7"/>
<path fill-rule="evenodd" clip-rule="evenodd" d="M12.5837 109.413H353.598L341.537 170.234H0.402405L12.5837 109.413ZM18.7223 116.913L9.54521 162.734H335.386L344.473 116.913H18.7223Z" fill="#F1E9D7"/>
<path d="M316.786 156.295C321.544 156.295 325.033 155.389 327.359 153.691C329.686 151.993 331.166 149.502 331.8 146.333C332.012 145.2 332.118 144.182 332.118 143.502C332.118 141.691 331.589 140.106 330.426 138.861C329.263 137.616 327.359 136.483 324.716 135.691L323.764 135.351C322.073 134.785 321.015 134.333 320.381 134.106C319.852 133.766 319.535 133.314 319.535 132.748C319.535 132.521 319.535 132.408 319.535 132.295C319.747 131.389 320.275 130.823 321.227 130.483C322.178 130.144 323.447 130.031 325.139 130.031C327.782 130.031 330.32 130.597 332.858 131.842L334.444 123.917C333.386 123.465 332.012 123.125 330.214 122.899C328.523 122.559 326.831 122.446 325.245 122.446C320.804 122.446 317.42 123.238 315.094 124.936C312.768 126.634 311.182 129.012 310.548 132.295C310.442 132.974 310.336 133.766 310.336 134.672C310.336 136.483 310.865 137.955 311.922 139.2C312.979 140.333 314.671 141.351 316.892 142.257L318.372 142.823C320.064 143.502 321.333 143.955 321.861 144.295C322.496 144.634 322.813 145.2 322.813 145.88C322.813 146.106 322.813 146.219 322.813 146.446C322.601 147.351 322.073 148.031 321.333 148.37C320.487 148.71 319.218 148.823 317.526 148.823C316.046 148.823 314.46 148.597 312.768 148.144C311.076 147.691 309.596 147.125 308.327 146.446L306.741 154.37C307.904 155.049 309.385 155.502 311.076 155.842C312.662 156.182 314.671 156.295 316.786 156.295ZM286.546 138.861L288.238 130.257H293.207C294.264 130.257 295.11 130.483 295.639 130.936C296.168 131.389 296.379 132.068 296.379 132.974C296.379 133.2 296.273 133.766 296.168 134.559C295.85 135.917 295.322 136.936 294.476 137.729C293.63 138.408 292.573 138.861 291.198 138.861H286.546ZM274.281 155.842H283.268L285.171 146.219H287.709C288.343 146.219 288.872 146.333 289.189 146.559C289.506 146.785 289.718 147.238 289.929 147.804L291.621 155.729H300.926L299.022 147.125C298.811 146.333 298.705 145.653 298.494 145.314C298.388 144.861 298.071 144.521 297.859 144.295C299.763 143.389 301.454 142.031 302.829 140.446C304.204 138.748 305.049 136.823 305.472 134.672C305.684 133.54 305.79 132.634 305.79 131.616C305.79 129.012 305.049 126.861 303.463 125.276C301.877 123.691 299.657 122.899 296.802 122.899H280.836L274.281 155.842ZM245.309 155.842H268.571L270.051 148.483H255.777L256.834 143.163H269.311L270.791 135.691H258.315L259.372 130.37H273.646L275.126 123.012H251.865L245.309 155.842ZM217.818 155.842H240.551L241.926 148.483H228.18L233.255 123.012H224.268L217.818 155.842ZM194.556 149.163L195.931 142.483H201.958C203.121 142.483 203.861 142.71 204.39 143.049C204.918 143.389 205.13 143.955 205.13 144.748C205.13 144.861 205.13 145.2 205.024 145.653C204.813 146.899 204.284 147.804 203.65 148.37C203.015 148.936 202.064 149.163 200.795 149.163H194.556ZM197.2 136.144L198.469 129.804H204.073C205.13 129.804 205.87 130.031 206.399 130.37C206.822 130.71 207.139 131.276 207.139 132.068C207.139 132.521 207.139 132.748 207.033 133.087C206.61 135.238 205.341 136.257 203.121 136.257H197.2V136.144ZM184.617 155.842H201.852C205.13 155.842 207.773 155.05 209.888 153.351C212.003 151.653 213.377 149.276 214.012 146.106C214.117 145.2 214.223 144.521 214.223 144.068C214.223 142.823 213.906 141.804 213.377 141.012C212.849 140.219 212.108 139.653 211.051 139.087C213.483 137.616 215.069 135.238 215.703 132.068C215.915 131.163 215.915 130.37 215.915 129.804C215.915 127.653 215.28 125.955 213.906 124.823C212.531 123.691 210.522 123.012 207.985 123.012H191.173L184.617 155.842ZM145.495 155.842H154.483L157.761 139.427L160.616 150.182H165.374L172.458 139.427L169.18 155.842H178.168L184.617 123.012H175.524L164.633 139.653L160.298 123.012H151.84L145.495 155.842ZM123.714 141.917L129.001 132.295L130.481 141.917H123.714ZM107.96 155.842H117.264L121.176 148.823H130.481L131.538 155.842H140.843L135.556 123.012H126.04L107.96 155.842ZM90.7248 138.861L92.4165 130.257H97.3861C98.4434 130.257 99.2893 130.483 99.818 130.936C100.347 131.389 100.558 132.068 100.558 132.974C100.558 133.2 100.452 133.766 100.347 134.559C100.029 135.917 99.5008 136.936 98.6549 137.729C97.809 138.408 96.7517 138.861 95.3771 138.861H90.7248ZM78.4595 155.842H87.447L89.3502 146.219H91.8879C92.5223 146.219 93.051 146.333 93.3682 146.559C93.6854 146.785 93.8968 147.238 94.1083 147.804L95.8001 155.729H105.105L103.201 147.125C102.99 146.333 102.884 145.653 102.673 145.314C102.461 144.861 102.25 144.521 102.038 144.295C103.942 143.389 105.633 142.031 107.008 140.446C108.383 138.748 109.228 136.823 109.651 134.672C109.863 133.54 109.969 132.634 109.969 131.616C109.969 129.012 109.228 126.861 107.642 125.276C106.056 123.691 103.836 122.899 100.981 122.899H84.9094L78.4595 155.842ZM63.128 156.295C66.5115 156.295 69.7893 155.729 72.8556 154.71L74.5473 146.333C71.5868 147.578 68.6262 148.257 65.4541 148.257C62.9165 148.257 61.0133 147.804 59.8502 147.012C58.6871 146.219 58.1584 144.748 58.1584 142.936C58.1584 142.031 58.2642 141.012 58.5814 139.766C59.2158 136.71 60.2731 134.446 61.9649 132.974C63.6566 131.502 65.9828 130.823 68.8377 130.823C71.904 130.823 74.7588 131.502 77.1907 132.748L78.8825 124.37C77.5079 123.804 76.1334 123.351 74.7588 123.125C73.3843 122.785 71.6925 122.672 69.895 122.672C63.9739 122.672 59.3215 124.144 56.0437 126.974C52.766 129.804 50.5455 134.106 49.4882 139.766C49.171 141.351 49.0652 142.71 49.0652 143.955C49.0652 147.917 50.3341 151.087 52.8717 153.238C55.3036 155.276 58.6871 156.295 63.128 156.295ZM29.5043 156.295C34.2624 156.295 37.7516 155.389 40.0778 153.691C42.4039 151.993 43.8842 149.502 44.5186 146.333C44.7301 145.2 44.8358 144.182 44.8358 143.502C44.8358 141.691 44.3072 140.106 43.1441 138.861C41.981 137.616 40.0778 136.483 37.4344 135.691L36.4828 135.351C34.791 134.785 33.7337 134.333 33.0993 134.106C32.5706 133.766 32.2534 133.314 32.2534 132.748C32.2534 132.521 32.2534 132.408 32.2534 132.295C32.4649 131.389 32.9935 130.823 33.9451 130.483C34.8968 130.257 36.1656 130.031 37.8573 130.031C40.5007 130.031 43.0383 130.597 45.576 131.842L47.162 123.917C46.1047 123.465 44.7301 123.125 42.9326 122.899C41.2409 122.559 39.5491 122.446 37.9631 122.446C33.5222 122.446 30.1387 123.238 27.8125 124.936C25.4864 126.634 23.9003 129.012 23.2659 132.295C23.0545 132.974 23.0545 133.766 23.0545 134.672C23.0545 136.483 23.5831 137.955 24.6405 139.2C25.6978 140.333 27.3896 141.351 29.61 142.257L30.9846 142.823C32.7821 143.502 33.9451 143.955 34.4738 144.295C35.1082 144.634 35.4254 145.2 35.4254 145.88C35.4254 146.106 35.4254 146.219 35.4254 146.446C35.214 147.351 34.6853 148.031 33.9451 148.37C33.0993 148.71 31.8305 148.823 30.1387 148.823C28.6584 148.823 27.0724 148.597 25.3806 148.144C23.6889 147.691 22.2086 147.125 20.9398 146.446L19.3537 154.37C20.5168 155.049 21.9971 155.502 23.6889 155.842C25.4864 156.182 27.3896 156.295 29.5043 156.295Z" fill="#F1E9D7"/>
</svg>
