<svg width="265" height="38" viewBox="0 0 265 38" fill="none" xmlns="http://www.w3.org/2000/svg">
<g clip-path="url(#clip0)">
<path d="M4.70068 35.9207H251.814L259.648 2.15088H12.6139L4.70068 35.9207Z" stroke="#FCFAEC" stroke-width="6"/>
<path d="M235.752 29.468C239.278 29.468 241.863 28.8944 243.587 27.819C245.31 26.7435 246.407 25.1661 246.877 23.1586C247.034 22.4416 247.112 21.7963 247.112 21.3661C247.112 20.219 246.721 19.2152 245.859 18.4265C244.997 17.6378 243.587 16.9208 241.628 16.419L240.923 16.2039C239.669 15.8454 238.886 15.5586 238.416 15.4152C238.024 15.2001 237.789 14.9133 237.789 14.5548C237.789 14.4114 237.789 14.3397 237.789 14.268C237.946 13.6944 238.337 13.3359 239.042 13.1208C239.748 12.9057 240.688 12.834 241.941 12.834C243.9 12.834 245.78 13.1925 247.661 13.9812L248.836 8.96235C248.053 8.67556 247.034 8.46046 245.702 8.31707C244.449 8.10197 243.195 8.03027 242.02 8.03027C238.729 8.03027 236.222 8.53216 234.498 9.60763C232.775 10.6831 231.599 12.1888 231.129 14.268C231.051 14.6982 230.973 15.2001 230.973 15.7737C230.973 16.9208 231.364 17.8529 232.148 18.6416C232.931 19.3586 234.185 20.0039 235.83 20.5774L236.927 20.9359C238.181 21.3661 239.121 21.6529 239.513 21.868C239.983 22.0831 240.218 22.4416 240.218 22.8718C240.218 23.0152 240.218 23.0869 240.218 23.2303C240.061 23.8039 239.669 24.2341 239.121 24.4491C238.494 24.6642 237.554 24.7359 236.3 24.7359C235.203 24.7359 234.028 24.5925 232.775 24.3058C231.521 24.019 230.424 23.6605 229.484 23.2303L228.309 28.2491C229.171 28.6793 230.267 28.9661 231.521 29.1812C232.696 29.3963 234.185 29.468 235.752 29.468ZM213.344 18.4265L214.598 12.9774H218.28C219.063 12.9774 219.69 13.1208 220.082 13.4076C220.474 13.6944 220.63 14.1246 220.63 14.6982C220.63 14.8416 220.552 15.2001 220.474 15.702C220.239 16.5624 219.847 17.2076 219.22 17.7095C218.593 18.1397 217.81 18.4265 216.791 18.4265H213.344V18.4265ZM204.255 29.1812H210.915L212.325 23.0869H214.206C214.676 23.0869 215.068 23.1586 215.303 23.302C215.538 23.4454 215.694 23.7322 215.851 24.0907L217.105 29.1095H223.999L222.589 23.6605C222.432 23.1586 222.354 22.7284 222.197 22.5133C222.119 22.2265 221.884 22.0114 221.727 21.868C223.138 21.2944 224.391 20.4341 225.41 19.4303C226.428 18.3548 227.055 17.1359 227.368 15.7737C227.525 15.0567 227.604 14.4831 227.604 13.8378C227.604 12.1888 227.055 10.8265 225.88 9.82273C224.705 8.81895 223.059 8.31707 220.944 8.31707H209.113L204.255 29.1812ZM182.788 29.1812H200.025L201.122 24.5208H190.544L191.328 21.151H200.573L201.67 16.419H192.425L193.208 13.0491H203.785L204.882 8.38876H187.645L182.788 29.1812ZM162.417 29.1812H179.262L180.281 24.5208H170.095L173.856 8.38876H167.196L162.417 29.1812ZM145.18 24.951L146.199 20.7208H150.665C151.527 20.7208 152.075 20.8642 152.467 21.0793C152.859 21.2944 153.015 21.6529 153.015 22.1548C153.015 22.2265 153.015 22.4416 152.937 22.7284C152.78 23.5171 152.388 24.0907 151.918 24.4491C151.448 24.8076 150.743 24.951 149.803 24.951H145.18V24.951ZM147.139 16.7057L148.079 12.6907H152.232C153.015 12.6907 153.564 12.834 153.955 13.0491C154.269 13.2642 154.504 13.6227 154.504 14.1246C154.504 14.4114 154.504 14.5548 154.426 14.7699C154.112 16.1322 153.172 16.7774 151.527 16.7774H147.139V16.7057ZM137.816 29.1812H150.586C153.015 29.1812 154.974 28.6793 156.541 27.6039C158.108 26.5284 159.126 25.0227 159.597 23.0152C159.675 22.4416 159.753 22.0114 159.753 21.7246C159.753 20.9359 159.518 20.2907 159.126 19.7888C158.735 19.2869 158.186 18.9284 157.403 18.5699C159.205 17.6378 160.38 16.1322 160.85 14.1246C161.007 13.551 161.007 13.0491 161.007 12.6907C161.007 11.3284 160.537 10.2529 159.518 9.53593C158.5 8.81895 157.011 8.38876 155.131 8.38876H142.673L137.816 29.1812ZM108.826 29.1812H115.486L117.915 18.785L120.03 25.5963H123.556L128.805 18.785L126.377 29.1812H133.036L137.816 8.38876H131.077L123.008 18.9284L119.795 8.38876H113.527L108.826 29.1812ZM92.6865 20.3624L96.6039 14.268L97.7008 20.3624H92.6865ZM81.0125 29.1812H87.9072L90.8061 24.7359H97.7008L98.4843 29.1812H105.379L101.462 8.38876H94.4101L81.0125 29.1812ZM68.2416 18.4265L69.4951 12.9774H73.1776C73.961 12.9774 74.5878 13.1208 74.9796 13.4076C75.3713 13.6944 75.528 14.1246 75.528 14.6982C75.528 14.8416 75.4497 15.2001 75.3713 15.702C75.1363 16.5624 74.7445 17.2076 74.1177 17.7095C73.4909 18.1397 72.7075 18.4265 71.6889 18.4265H68.2416V18.4265ZM59.1531 29.1812H65.8127L67.223 23.0869H69.1034C69.5735 23.0869 69.9652 23.1586 70.2003 23.302C70.4353 23.4454 70.592 23.7322 70.7487 24.0907L72.0023 29.1095H78.897L77.4867 23.6605C77.3301 23.1586 77.2517 22.7284 77.095 22.5133C76.9383 22.2265 76.7816 22.0114 76.6249 21.868C78.0352 21.2944 79.2888 20.4341 80.3073 19.4303C81.3258 18.3548 81.9526 17.1359 82.266 15.7737C82.4227 15.0567 82.5011 14.4831 82.5011 13.8378C82.5011 12.1888 81.9526 10.8265 80.7774 9.82273C79.6022 8.81895 77.9568 8.31707 75.8414 8.31707H63.9324L59.1531 29.1812ZM47.7925 29.468C50.2996 29.468 52.7285 29.1095 55.0006 28.4642L56.2542 23.1586C54.0604 23.9473 51.8666 24.3774 49.5161 24.3774C47.6358 24.3774 46.2255 24.0907 45.3636 23.5888C44.5018 23.0869 44.1101 22.1548 44.1101 21.0076C44.1101 20.434 44.1884 19.7888 44.4235 19.0001C44.8935 17.0642 45.677 15.6303 46.9306 14.6982C48.1842 13.7661 49.9079 13.3359 52.0233 13.3359C54.2954 13.3359 56.4109 13.7661 58.2129 14.5548L59.4665 9.24914C58.4479 8.89065 57.4294 8.60386 56.4109 8.46046C55.3923 8.24537 54.1387 8.17367 52.8068 8.17367C48.4193 8.17367 44.9719 9.10575 42.5431 10.8982C40.1143 12.6907 38.4689 15.4152 37.6854 19.0001C37.4504 20.0039 37.372 20.8642 37.372 21.6529C37.372 24.1624 38.3122 26.1699 40.1926 27.5322C41.9946 28.8227 44.5018 29.468 47.7925 29.468ZM22.8775 29.468C26.4032 29.468 28.9887 28.8944 30.7124 27.819C32.4361 26.7435 33.5329 25.1661 34.003 23.1586C34.1597 22.4416 34.2381 21.7963 34.2381 21.3661C34.2381 20.219 33.8463 19.2152 32.9845 18.4265C32.1227 17.6378 30.7124 16.9208 28.7536 16.419L28.0485 16.2039C26.7949 15.8454 26.0114 15.5586 25.5413 15.4152C25.1496 15.2001 24.9145 14.9133 24.9145 14.5548C24.9145 14.4114 24.9145 14.3397 24.9145 14.268C25.0712 13.6944 25.463 13.3359 26.1681 13.1208C26.8733 12.9774 27.8135 12.834 29.067 12.834C31.0258 12.834 32.9061 13.1925 34.7865 13.9812L35.9618 8.96235C35.1783 8.67556 34.1597 8.46046 32.8278 8.31707C31.5742 8.10197 30.3206 8.03027 29.1454 8.03027C25.8547 8.03027 23.3476 8.53216 21.6239 9.60763C19.9002 10.6831 18.725 12.1888 18.2549 14.268C18.0982 14.6982 18.0982 15.2001 18.0982 15.7737C18.0982 16.9208 18.4899 17.8529 19.2734 18.6416C20.0569 19.3586 21.3105 20.0039 22.9558 20.5774L23.9744 20.9359C25.3063 21.3661 26.1681 21.6529 26.5599 21.868C27.03 22.0831 27.265 22.4416 27.265 22.8718C27.265 23.0152 27.265 23.0869 27.265 23.2303C27.1083 23.8039 26.7166 24.2341 26.1681 24.4491C25.5413 24.6642 24.6011 24.7359 23.3476 24.7359C22.2507 24.7359 21.0754 24.5925 19.8219 24.3058C18.5683 24.019 17.4714 23.6605 16.5312 23.2303L15.356 28.2491C16.2178 28.6793 17.3147 28.9661 18.5683 29.1812C19.9002 29.3963 21.3105 29.468 22.8775 29.468Z" fill="#FCFAEC"/>
</g>
<defs>
<clipPath id="clip0">
<rect width="264.036" height="38" fill="white"/>
</clipPath>
</defs>
</svg>
